HIERARCHY
ROOT hip
{
	OFFSET 0.000000 0.000000 0.000000
	CHANNELS 6 Xposition Yposition Zposition Zrotation Yrotation Xrotation 
	JOINT lhipjoint
	{
		OFFSET 0.000000 0.000000 0.000000
		CHANNELS 3 Zrotation Yrotation Xrotation
		JOINT lfemur
		{
			OFFSET 1.363060 -1.794630 0.839290
			CHANNELS 3 Zrotation Yrotation Xrotation
			JOINT ltibia
			{
				OFFSET 2.448110 -6.726130 0.000000
				CHANNELS 3 Zrotation Yrotation Xrotation
				JOINT lfoot
				{
					OFFSET 2.562200 -7.039590 0.000000
					CHANNELS 3 Zrotation Yrotation Xrotation
					JOINT ltoes
					{
						OFFSET 0.157640 -0.433110 2.322550
						CHANNELS 3 Zrotation Yrotation Xrotation
						End Site
						{
							OFFSET 0.000000 0.000000 0.000000
						}
					}
				}
			}
		}
	}
	JOINT rhipjoint
	{
		OFFSET 0.000000 0.000000 0.000000
		CHANNELS 3 Zrotation Yrotation Xrotation
		JOINT rfemur
		{
			OFFSET -1.305520 -1.794630 0.839290
			CHANNELS 3 Zrotation Yrotation Xrotation
			JOINT rtibia
			{
				OFFSET -2.542530 -6.985550 0.000000
				CHANNELS 3 Zrotation Yrotation Xrotation
				JOINT rfoot
				{
					OFFSET -2.568260 -7.056230 0.000000
					CHANNELS 3 Zrotation Yrotation Xrotation
					JOINT rtoes
					{
						OFFSET -0.164730 -0.452590 2.363150
						CHANNELS 3 Zrotation Yrotation Xrotation
						End Site
						{
							OFFSET 0.000000 0.000000 0.000000
						}
					}
				}
			}
		}
	}
	JOINT lowerback
	{
		OFFSET 0.000000 0.000000 0.000000
		CHANNELS 3 Zrotation Yrotation Xrotation
		JOINT upperback
		{
			OFFSET 0.028270 2.035590 -0.193380
			CHANNELS 3 Zrotation Yrotation Xrotation
			JOINT thorax
			{
				OFFSET 0.056720 2.048850 -0.042750
				CHANNELS 3 Zrotation Yrotation Xrotation
				JOINT lowerneck
				{
					OFFSET 0.000000 0.000000 0.000000
					CHANNELS 3 Zrotation Yrotation Xrotation
					JOINT upperneck
					{
						OFFSET -0.054170 1.746240 0.172020
						CHANNELS 3 Zrotation Yrotation Xrotation
						JOINT head
						{
							OFFSET 0.104070 1.761360 -0.123970
							CHANNELS 3 Zrotation Yrotation Xrotation
							End Site
							{
								OFFSET 0.000000 0.000000 0.000000
							}
						}
					}
				}
				JOINT lclavicle
				{
					OFFSET 0.000000 0.000000 0.000000
					CHANNELS 3 Zrotation Yrotation Xrotation
					JOINT lhumerus
					{
						OFFSET 3.362410 1.200890 -0.311210
						CHANNELS 3 Zrotation Yrotation Xrotation
						JOINT lradius
						{
							OFFSET 4.983000 -0.000000 -0.000000
							CHANNELS 3 Zrotation Yrotation Xrotation
							JOINT lwrist
							{
								OFFSET 3.483560 -0.000000 -0.000000
								CHANNELS 3 Zrotation Yrotation Xrotation
								JOINT lhand
								{
									OFFSET 0.000000 0.000000 0.000000
									CHANNELS 3 Zrotation Yrotation Xrotation
									JOINT lfingers
									{
										OFFSET 0.715260 -0.000000 -0.000000
										CHANNELS 3 Zrotation Yrotation Xrotation
										End Site
										{
											OFFSET 0.000000 0.000000 0.000000
										}
									}
								}
								JOINT lthumb
								{
									OFFSET 0.000000 0.000000 0.000000
									CHANNELS 3 Zrotation Yrotation Xrotation
									End Site
									{
										OFFSET 0.000000 0.000000 0.000000
									}
								}
							}
						}
					}
				}
				JOINT rclavicle
				{
					OFFSET 0.000000 0.000000 0.000000
					CHANNELS 3 Zrotation Yrotation Xrotation
					JOINT rhumerus
					{
						OFFSET -3.136600 1.374050 -0.404650
						CHANNELS 3 Zrotation Yrotation Xrotation
						JOINT rradius
						{
							OFFSET -5.241900 -0.000000 -0.000000
							CHANNELS 3 Zrotation Yrotation Xrotation
							JOINT rwrist
							{
								OFFSET -3.444170 -0.000000 -0.000000
								CHANNELS 3 Zrotation Yrotation Xrotation
								JOINT rhand
								{
									OFFSET 0.000000 0.000000 0.000000
									CHANNELS 3 Zrotation Yrotation Xrotation
									JOINT rfingers
									{
										OFFSET -0.622530 -0.000000 -0.000000
										CHANNELS 3 Zrotation Yrotation Xrotation
										End Site
										{
											OFFSET 0.000000 0.000000 0.000000
										}
									}
								}
								JOINT rthumb
								{
									OFFSET 0.000000 0.000000 0.000000
									CHANNELS 3 Zrotation Yrotation Xrotation
									End Site
									{
										OFFSET 0.000000 0.000000 0.000000
									}
								}
							}
						}
					}
				}
			}
		}
	}
}
MOTION
Frames: 4
Frame Time: 0.008333
-4.419786 17.177417 -1.612675 -14.355903 -83.291562 12.681433 -5.556653 -4.191020 -1.212546 -9.866381 2.010777 1.069321 9.317799 19.040809 57.227170 0.661065 3.965738 11.037077 0.149600 -2.492100 -6.867800 1.398944 3.073151 -2.515757 20.106824 0.758778 -13.653908 -4.977249 -11.092302 31.023817 -0.395176 8.862525 -2.313430 -0.004800 -0.447000 1.228300 5.887658 -1.317491 2.338879 2.094664 -1.837729 -3.807173 -3.335571 -0.981056 9.788494 1.632581 -1.399753 -14.828206 3.853947 -2.015697 11.691964 -1.878400 -0.572800 3.308800 -3.532680 -3.635890 2.621926 -81.012176 -1.484795 4.834826 3.376014 -14.461859 -0.984004 0.198098 0.327723 49.329982 6.589133 -4.801100 -0.606800 -7.125000 0.000000 0.000000 -14.820800 24.762700 7.491800 6.257379 4.323134 3.517424 78.139251 -5.920837 7.928620 -9.660551 29.082004 -2.804669 -0.134553 -1.829632 2.881463 -11.759660 7.059356 -1.846000 7.125000 0.000000 0.000000 10.892900 -20.932200 6.397000 
-4.562395 17.194974 -1.609630 -14.054410 -83.294405 12.299191 -5.546973 -4.155166 -1.166857 -9.774611 2.091419 -0.318413 9.631331 19.108186 58.172289 0.545433 3.562907 9.637568 0.195900 -2.850200 -7.862000 1.384622 3.187911 -2.623388 20.158574 0.401255 -12.693180 -4.853013 -11.047425 30.539215 -0.405202 9.034585 -2.671035 -0.003800 -0.399400 1.097500 5.842580 -1.271774 2.466867 2.075930 -1.753858 -3.801646 -3.307387 -0.961419 9.770082 1.603760 -1.439789 -14.853365 3.838099 -2.063200 11.682155 -1.879900 -0.597900 3.313400 -3.543615 -3.639845 2.609410 -81.128208 -1.218296 4.350336 3.093195 -14.078948 -0.926169 0.152903 0.299161 50.499553 5.802925 -4.319646 -0.480700 -7.125000 0.000000 0.000000 -15.446900 25.288200 7.634500 6.308491 4.292898 3.537362 78.024105 -5.678738 9.095204 -10.519150 29.988518 -3.017225 -0.129346 -1.901783 2.042474 -12.159959 7.181052 -1.949900 7.125000 0.000000 0.000000 10.610500 -20.718100 6.277500 
-4.703480 17.211367 -1.607301 -13.771495 -83.301414 11.949074 -5.539649 -4.114858 -1.122223 -9.685976 2.154027 -1.739282 9.904562 19.141377 58.982818 0.456649 3.161436 8.410191 0.257600 -3.265500 -9.018700 1.374747 3.296648 -2.724931 20.211328 0.039944 -11.783516 -4.733438 -11.002346 30.073165 -0.415975 9.215488 -3.038469 -0.001300 -0.232400 0.638600 5.778427 -1.219511 2.581800 2.059404 -1.660724 -3.795199 -3.253998 -0.939533 9.758544 1.577436 -1.491339 -14.872127 3.793048 -2.120670 11.650581 -1.895000 -0.630600 3.306000 -3.553036 -3.642768 2.596512 -81.248956 -0.906202 4.080951 2.921970 -13.853380 -0.890164 0.106152 0.276082 51.573168 5.014272 -3.833851 -0.369200 -7.125000 0.000000 0.000000 -16.079500 25.810000 7.767000 6.362067 4.262076 3.557968 77.897371 -5.416131 10.166448 -11.358267 30.846376 -3.234090 -0.121740 -1.972251 1.243311 -12.573041 7.250008 -2.047200 7.125000 0.000000 0.000000 10.321300 -20.556600 6.138900 
-4.842505 17.225341 -1.603807 -13.528276 -83.335126 11.649600 -5.534576 -4.072592 -1.076412 -9.605338 2.247104 -3.209945 10.140908 19.143034 59.670692 0.390659 2.676906 7.326677 0.305000 -3.550900 -9.816600 1.370298 3.398586 -2.819089 20.239551 -0.317907 -10.915257 -4.618735 -10.960791 29.632114 -0.425849 9.404826 -3.337796 -0.000600 -0.153700 0.422400 5.730217 -1.153770 2.707826 2.035432 -1.549096 -3.794986 -3.235759 -0.905187 9.702996 1.545848 -1.537879 -14.821834 3.776109 -2.180780 11.588676 -1.894900 -0.665600 3.269800 -3.565329 -3.659093 2.585924 -81.353314 -0.536780 3.830859 2.803694 -13.694719 -0.866064 0.069657 0.254045 52.599295 4.343023 -3.522727 -0.293700 -7.125000 0.000000 0.000000 -16.612500 26.150600 7.907200 6.414472 4.235645 3.576621 77.770419 -5.196820 11.247015 -12.219163 31.710460 -3.462931 -0.107995 -2.044908 0.449348 -12.951463 7.242838 -2.124900 7.125000 0.000000 0.000000 10.057100 -20.470100 5.996700 
